<svg xmlns="http://www.w3.org/2000/svg" class="intro__illu | illu illu--asteriskShadow" width="1236" height="1113" viewBox="0 0 1236 1113" aria-hidden="true" preserveAspectRatio="xMidYMin meet">
  <g fill="none" fill-rule="evenodd" stroke="#058aae" stroke-linejoin="round" stroke-width=".25" opacity=".9" transform="translate(1 1)">
    <path d="M617.453058,695.775646 C544.060524,695.775646 475.69279,656.259065 439.031129,592.655791 L230.065891,230.517423 C187.652702,157.024617 212.81823,63.0532733 286.266134,20.6141553 C359.720958,-21.8180373 453.641808,3.35594999 496.027311,76.8487568 L617.453058,287.264508 L738.878804,76.8487568 C781.285071,3.36287544 875.198999,-21.8180373 948.639982,20.6141553 C1022.09481,63.0532733 1047.26033,157.024617 1004.84022,230.517423 L795.847302,592.71812 C759.213326,656.259065 690.845592,695.775646 617.453058,695.775646 Z"></path>
    <path d="M826.733168,1111.05535 C773.718017,1111.05535 722.163968,1083.55852 693.675941,1034.34017 L483.955869,672.09751 C447.158258,608.492891 447.026689,529.462037 483.581938,465.781154 C520.247981,402.01014 588.552768,362.387249 661.891779,362.262453 L1080.10626,361.548339 L1080.36247,361.548339 C1165.09946,361.548339 1233.86128,430.234949 1234,515.103506 C1234.14519,600.05526 1165.48724,669.053862 1080.62561,669.199457 L837.694895,669.608513 L959.520333,880.070886 C1002.05848,953.569094 977.039708,1047.68646 903.638375,1090.2906 C879.388237,1104.35794 852.880662,1111.05535 826.733168,1111.05535 Z"></path>
    <path d="M407.266867,1111.05535 C381.119372,1111.05535 354.611794,1104.35794 330.361653,1090.28367 C256.946465,1047.67953 231.941537,953.562161 274.49354,880.063952 L396.318988,669.608513 L153.374406,669.199457 C68.5127634,669.053862 -0.145187177,600.05526 0,515.103506 C0.138723663,430.241882 68.900544,361.548339 153.637543,361.548339 L153.893755,361.548339 L572.087497,362.262453 C645.50961,362.387249 713.828252,402.044805 750.404278,465.753421 C786.966454,529.462037 786.84181,608.492891 750.078819,672.042045 L540.324106,1034.3471 C511.836077,1083.55852 460.261249,1111.05535 407.266867,1111.05535 Z"></path>
  </g>
</svg>